<svg xmlns="http://www.w3.org/2000/svg" xmlns:xlink="http://www.w3.org/1999/xlink" width="1024" zoomAndPan="magnify" viewBox="0 0 768 767.999994" height="1024" preserveAspectRatio="xMidYMid meet" version="1.0"><defs><g/><clipPath id="c7111f58f1"><path d="M 54 0 L 714 0 L 714 768 L 54 768 Z M 54 0 " clip-rule="nonzero"/></clipPath><clipPath id="9cb0a5bf54"><path d="M 384 0 L 714 192 L 714 576 L 384 768 L 54 576 L 54 192 Z M 384 0 " clip-rule="nonzero"/></clipPath><clipPath id="f148327319"><path d="M 0 0 L 660 0 L 660 768 L 0 768 Z M 0 0 " clip-rule="nonzero"/></clipPath><clipPath id="0c2bfa4e20"><path d="M 330 0 L 660 192 L 660 576 L 330 768 L 0 576 L 0 192 Z M 330 0 " clip-rule="nonzero"/></clipPath><clipPath id="1a2e0826bb"><rect x="0" width="660" y="0" height="768"/></clipPath><clipPath id="c01f888a1f"><rect x="0" width="402" y="0" height="513"/></clipPath></defs><g clip-path="url(#c7111f58f1)"><g clip-path="url(#9cb0a5bf54)"><g transform="matrix(1, 0, 0, 1, 54, -0.000000000000057351)"><g clip-path="url(#1a2e0826bb)"><g clip-path="url(#f148327319)"><g clip-path="url(#0c2bfa4e20)"><rect x="-222.96" width="1105.92" fill="#ff5757" height="1105.919991" y="-168.959999" fill-opacity="1"/></g></g></g></g></g></g><g transform="matrix(1, 0, 0, 1, 185, 98)"><g clip-path="url(#c01f888a1f)"><g fill="#ffffff" fill-opacity="1"><g transform="translate(0.833339, 381.934921)"><g><path d="M 95.515625 65.421875 C 103.285156 64.921875 108.988281 64.046875 112.625 62.796875 C 116.257812 61.546875 118.765625 59.414062 120.140625 56.40625 C 121.515625 53.394531 122.332031 48.628906 122.59375 42.109375 L 124.09375 -22.1875 C 99.769531 -4.882812 85.476562 3.765625 81.21875 3.765625 C 59.414062 3.765625 42.054688 -3.691406 29.140625 -18.609375 C 16.234375 -33.523438 9.78125 -53.769531 9.78125 -79.34375 C 9.78125 -97.894531 13.851562 -114.628906 22 -129.546875 C 30.144531 -144.460938 41.425781 -156.117188 55.84375 -164.515625 C 70.257812 -172.910156 86.488281 -177.109375 104.53125 -177.109375 C 115.0625 -177.109375 128.851562 -175.851562 145.90625 -173.34375 C 152.414062 -175.851562 157.863281 -177.984375 162.25 -179.734375 C 166.644531 -181.492188 169.46875 -182.625 170.71875 -183.125 L 174.859375 -178.984375 C 172.347656 -173.722656 170.398438 -151.410156 169.015625 -112.046875 C 167.640625 -72.691406 166.953125 -22.679688 166.953125 37.984375 C 166.953125 45.253906 167.265625 50.640625 167.890625 54.140625 C 168.523438 57.648438 169.65625 60.03125 171.28125 61.28125 C 172.90625 62.539062 175.347656 63.171875 178.609375 63.171875 C 181.117188 63.171875 183.25 63.109375 185 62.984375 C 186.757812 62.859375 187.890625 62.796875 188.390625 62.796875 L 189.140625 63.921875 L 186.515625 86.484375 L 139.5 86.484375 C 131.726562 86.484375 122.828125 86.671875 112.796875 87.046875 C 102.773438 87.421875 96.257812 87.734375 93.25 87.984375 Z M 95.140625 -31.203125 C 99.148438 -31.203125 103.347656 -32.207031 107.734375 -34.21875 C 112.117188 -36.226562 115.753906 -38.234375 118.640625 -40.234375 C 121.523438 -42.242188 123.34375 -43.625 124.09375 -44.375 L 124.09375 -139.5 C 123.59375 -139.757812 122.085938 -140.390625 119.578125 -141.390625 C 117.066406 -142.390625 113.804688 -143.390625 109.796875 -144.390625 C 105.785156 -145.398438 101.273438 -145.90625 96.265625 -145.90625 C 83.984375 -145.90625 74.457031 -141.328125 67.6875 -132.171875 C 60.914062 -123.023438 57.53125 -110.050781 57.53125 -93.25 C 57.53125 -74.445312 60.976562 -59.40625 67.875 -48.125 C 74.769531 -36.84375 83.859375 -31.203125 95.140625 -31.203125 Z M 95.140625 -31.203125 "/></g></g></g><g fill="#ffffff" fill-opacity="1"><g transform="translate(195.238194, 381.934921)"><g><path d="M 165.078125 4.515625 C 142.765625 4.515625 130.226562 -4.507812 127.46875 -22.5625 L 125.21875 -23.3125 C 100.90625 -5.757812 86.238281 3.015625 81.21875 3.015625 C 59.414062 3.015625 42.054688 -4.378906 29.140625 -19.171875 C 16.234375 -33.960938 9.78125 -54.019531 9.78125 -79.34375 C 9.78125 -97.894531 13.851562 -114.628906 22 -129.546875 C 30.144531 -144.460938 41.425781 -156.117188 55.84375 -164.515625 C 70.257812 -172.910156 86.488281 -177.109375 104.53125 -177.109375 C 110.550781 -177.109375 117.070312 -176.734375 124.09375 -175.984375 L 124.09375 -224.484375 C 124.09375 -232.253906 122.898438 -237.707031 120.515625 -240.84375 C 118.140625 -243.976562 114.066406 -245.546875 108.296875 -245.546875 C 106.285156 -245.546875 104.40625 -245.421875 102.65625 -245.171875 C 100.90625 -244.921875 99.773438 -244.671875 99.265625 -244.421875 L 101.53125 -266.609375 C 116.320312 -268.359375 131.238281 -270.613281 146.28125 -273.375 C 161.320312 -276.132812 171.097656 -278.015625 175.609375 -279.015625 L 178.984375 -272.625 C 175.734375 -267.863281 172.976562 -243.421875 170.71875 -199.296875 C 168.457031 -155.171875 167.328125 -105.160156 167.328125 -49.265625 C 167.328125 -44.492188 168.390625 -40.726562 170.515625 -37.96875 C 172.648438 -35.21875 175.597656 -33.84375 179.359375 -33.84375 C 182.117188 -33.84375 184.753906 -34.34375 187.265625 -35.34375 C 189.773438 -36.34375 191.84375 -37.34375 193.46875 -38.34375 C 195.09375 -39.351562 196.160156 -39.984375 196.671875 -40.234375 L 202.6875 -32.34375 C 201.925781 -30.832031 199.789062 -27.570312 196.28125 -22.5625 C 192.78125 -17.550781 188.207031 -12.285156 182.5625 -6.765625 C 176.925781 -1.253906 171.097656 2.503906 165.078125 4.515625 Z M 95.140625 -31.59375 C 99.148438 -31.59375 103.347656 -32.53125 107.734375 -34.40625 C 112.117188 -36.289062 115.753906 -38.234375 118.640625 -40.234375 C 121.523438 -42.242188 123.34375 -43.625 124.09375 -44.375 L 124.09375 -139.5 C 123.59375 -139.757812 122.085938 -140.390625 119.578125 -141.390625 C 117.066406 -142.390625 113.804688 -143.390625 109.796875 -144.390625 C 105.785156 -145.398438 101.273438 -145.90625 96.265625 -145.90625 C 83.984375 -145.90625 74.457031 -141.328125 67.6875 -132.171875 C 60.914062 -123.023438 57.53125 -110.050781 57.53125 -93.25 C 57.53125 -74.695312 60.976562 -59.78125 67.875 -48.5 C 74.769531 -37.226562 83.859375 -31.59375 95.140625 -31.59375 Z M 95.140625 -31.59375 "/></g></g></g></g></g></svg>